<?xml version="1.0" encoding="UTF-8" standalone="no"?>
<svg
   xmlns:osb="http://www.openswatchbook.org/uri/2009/osb"
   xmlns:dc="http://purl.org/dc/elements/1.1/"
   xmlns:cc="http://creativecommons.org/ns#"
   xmlns:rdf="http://www.w3.org/1999/02/22-rdf-syntax-ns#"
   xmlns:svg="http://www.w3.org/2000/svg"
   xmlns="http://www.w3.org/2000/svg"
   xmlns:sodipodi="http://sodipodi.sourceforge.net/DTD/sodipodi-0.dtd"
   xmlns:inkscape="http://www.inkscape.org/namespaces/inkscape"
   inkscape:version="1.1-dev (f9311a1, 2019-12-25)"
   inkscape:export-ydpi="68.565285"
   inkscape:export-xdpi="68.565285"
   inkscape:export-filename="/Users/pasta_87/bitmapa.png"
   sodipodi:docname="diaper.svg"
   xml:space="preserve"
   viewBox="0 0 446.64 319.2228"
   y="0px"
   x="0px"
   id="Capa_1"
   version="1.1"
   width="446.64001"
   height="319.22281"><metadata
   id="metadata51"><rdf:RDF><cc:Work
       rdf:about=""><dc:format>image/svg+xml</dc:format><dc:type
         rdf:resource="http://purl.org/dc/dcmitype/StillImage" /></cc:Work></rdf:RDF></metadata><defs
   id="defs49"><linearGradient
     osb:paint="gradient"
     id="linearGradient861"
     inkscape:collect="always"><stop
       id="stop857"
       offset="0"
       style="stop-color:#f5deb3;stop-opacity:1;" /><stop
       id="stop859"
       offset="1"
       style="stop-color:#f5deb3;stop-opacity:0;" /></linearGradient></defs><sodipodi:namedview
   inkscape:current-layer="Capa_1"
   inkscape:window-maximized="0"
   inkscape:window-y="23"
   inkscape:window-x="16"
   inkscape:cy="159.61101"
   inkscape:cx="251.89315"
   inkscape:zoom="0.99830898"
   showgrid="false"
   id="namedview47"
   inkscape:window-height="766"
   inkscape:window-width="1424"
   inkscape:pageshadow="2"
   inkscape:pageopacity="0"
   guidetolerance="10"
   gridtolerance="10"
   objecttolerance="10"
   borderopacity="1"
   inkscape:document-rotation="0"
   bordercolor="#666666"
   pagecolor="#ffffff" />

<g
   style="stroke:#f5deb3;stroke-opacity:1"
   id="g16"
   transform="translate(0,-63.709)">
</g>
<g
   style="stroke:#f5deb3;stroke-opacity:1"
   id="g18"
   transform="translate(0,-63.709)">
</g>
<g
   style="stroke:#f5deb3;stroke-opacity:1"
   id="g20"
   transform="translate(0,-63.709)">
</g>
<g
   style="stroke:#f5deb3;stroke-opacity:1"
   id="g22"
   transform="translate(0,-63.709)">
</g>
<g
   style="stroke:#f5deb3;stroke-opacity:1"
   id="g24"
   transform="translate(0,-63.709)">
</g>
<g
   style="stroke:#f5deb3;stroke-opacity:1"
   id="g26"
   transform="translate(0,-63.709)">
</g>
<g
   style="stroke:#f5deb3;stroke-opacity:1"
   id="g28"
   transform="translate(0,-63.709)">
</g>
<g
   style="stroke:#f5deb3;stroke-opacity:1"
   id="g30"
   transform="translate(0,-63.709)">
</g>
<g
   style="stroke:#f5deb3;stroke-opacity:1"
   id="g32"
   transform="translate(0,-63.709)">
</g>
<g
   style="stroke:#f5deb3;stroke-opacity:1"
   id="g34"
   transform="translate(0,-63.709)">
</g>
<g
   style="stroke:#f5deb3;stroke-opacity:1"
   id="g36"
   transform="translate(0,-63.709)">
</g>
<g
   style="stroke:#f5deb3;stroke-opacity:1"
   id="g38"
   transform="translate(0,-63.709)">
</g>
<g
   style="stroke:#f5deb3;stroke-opacity:1"
   id="g40"
   transform="translate(0,-63.709)">
</g>
<g
   style="stroke:#f5deb3;stroke-opacity:1"
   id="g42"
   transform="translate(0,-63.709)">
</g>
<g
   style="stroke:#f5deb3;stroke-opacity:1"
   id="g44"
   transform="translate(0,-63.709)">
</g>
<path
   inkscape:connector-curvature="0"
   id="path32"
   d="M 196.33328,319.16336 C 104.13723,306.27062 32.187165,234.23843 19.990109,142.61894 19.209996,136.75903 18.562922,129.1473 18.552167,125.70397 l -0.01956,-6.26058 h -5.462184 c -6.56127,0 -9.961414,-1.38462 -11.456154,-4.66521 -0.74894201,-1.64375 -1.11215201,-14.15831 -1.11215201,-38.319676 0,-34.581016 0.07381,-35.9726 2.04076001,-38.473167 1.777969,-2.260321 2.906626,-2.632437 8.764821,-2.889745 L 18.03176,34.800253 18.309373,20.577431 C 18.582392,6.5902214 18.630263,6.3205704 21.199123,4.2999054 l 2.612131,-2.054703 H 223.063 c 212.7741,0 203.71794,-0.200583 205.54187,4.552501 0.34223,0.891833 0.62224,7.6699376 0.62224,15.0624546 V 35.3011 h 6.3364 c 5.3282,0 6.68294,0.36888 8.5144,2.318372 2.15534,2.294262 2.17799,2.704568 2.17799,39.455937 0,43.775531 0.56172,41.481291 -10.32598,42.174561 l -6.5869,0.41942 -0.49116,5.14589 c -2.67773,28.05457 -6.0716,44.37938 -13.14826,63.24414 -24.96713,66.55666 -83.99308,115.93946 -154.58268,129.3283 -17.66553,3.35064 -47.6485,4.17239 -64.78764,1.77564 z m 55.48414,-14.99119 c 8.04235,-1.20728 22.06338,-4.19005 22.88437,-4.86831 0.13001,-0.10742 -1.30794,-3.99552 -3.19545,-8.64025 -5.69755,-14.02035 -7.8517,-26.94821 -7.24903,-43.50425 0.3445,-9.46412 1.17183,-16.52349 2.54454,-21.71215 10.97614,-41.48804 43.96641,-71.70524 85.67044,-78.46923 16.63208,-2.69756 34.14918,-1.29079 49.62776,3.9855 4.08726,1.39326 7.60839,2.35619 7.82471,2.13986 0.73445,-0.73444 3.11081,-18.09691 3.54446,-25.89682 l 0.4316,-7.76313 h -37.77721 c -21.07112,0 -40.16329,-0.44532 -43.17282,-1.00698 -12.4665,-2.32663 -24.4016,-11.1695 -30.02875,-22.248711 -10.73053,-21.127176 -2.40029,-46.08371 18.89701,-56.613489 l 7.6297,-3.772263 42.12604,-0.500847 42.12606,-0.500847 V 26.285855 17.771457 L 223.62943,17.518445 33.558019,17.265434 v 9.017833 9.017833 h 39.885947 c 43.025124,0 45.738754,0.276068 54.774124,5.572361 4.71129,2.761634 12.35328,10.492868 15.28471,15.463211 3.76697,6.387035 5.52314,14.608205 5.04925,23.637055 -0.36946,7.039092 -0.99578,9.427852 -4.13996,15.789672 -5.88945,11.916501 -16.77314,20.249091 -29.60316,22.664281 -3.0494,0.57404 -21.953653,1.01571 -43.474343,1.01571 H 33.255862 l 0.614649,9.26567 c 0.338057,5.09611 1.142455,12.79588 1.787553,17.1106 0.970908,6.49388 1.451733,7.75175 2.791936,7.30387 0.890465,-0.29757 5.325072,-1.66819 9.85468,-3.04581 36.470841,-11.0921 77.06976,-0.81612 104.25287,26.38738 30.25213,30.27484 39.1585,75.16214 22.85594,115.19192 -1.44101,3.5383 -2.62002,6.76877 -2.62002,7.17881 0,1.64697 22.5201,5.85915 39.06606,7.30695 7.49552,0.65588 29.78383,-0.44332 39.95789,-1.97061 z m -90.40343,-18.94844 c 5.11572,-12.70126 6.711,-22.64793 6.09179,-37.98283 -0.61331,-15.18856 -2.74496,-23.87895 -8.86539,-36.14252 -20.66397,-41.40469 -68.740388,-60.452 -112.243302,-44.46947 l -5.692267,2.09128 3.366845,9.66961 c 13.908261,39.94469 39.815018,73.26496 75.131184,96.63082 10.80251,7.14716 34.26906,18.86511 37.02139,18.48654 1.42753,-0.19635 2.84149,-2.45318 5.18975,-8.28343 z m 139.29577,4.66013 c 10.76668,-4.70765 23.86054,-12.21906 34.7245,-19.91998 10.49385,-7.43857 34.5326,-31.47732 41.97117,-41.97117 11.044,-15.58015 21.73597,-36.49658 27.25753,-53.32318 2.0903,-6.37008 2.34322,-6.08865 -8.62747,-9.6001 -32.23233,-10.31676 -67.29957,-1.54181 -91.54267,22.90692 -23.75022,23.95164 -31.93304,60.64098 -20.68376,92.73975 2.87797,8.21202 5.39669,13.02202 6.81887,13.02202 0.6968,0 5.23363,-1.73442 10.08183,-3.85426 z m -183.5103,-187.7686 c 20.8012,-9.354441 21.92757,-38.554917 1.88209,-48.79205 L 114.19438,50.827356 64.860953,50.541091 15.527529,50.254826 v 26.413781 c 0,14.527582 0.324065,26.737843 0.720145,27.133923 0.39608,0.39608 22.370739,0.5839 48.832577,0.41737 43.768699,-0.27543 48.474169,-0.46544 52.119209,-2.10464 z M 431.23049,77.372244 V 50.326509 h -46.8978 c -53.19713,0 -54.18741,0.114683 -61.83127,7.16055 -6.18345,5.699696 -8.89062,11.783861 -8.84403,19.87619 0.0743,12.91017 7.96333,22.748781 20.90964,26.077101 1.6528,0.4249 24.07822,0.8187 49.83427,0.8751 l 46.82919,0.10253 z"
   style="font-variation-settings:normal;opacity:1;vector-effect:none;fill:#f5deb3;fill-opacity:1;stroke:#f5deb3;stroke-width:5;stroke-linecap:butt;stroke-linejoin:miter;stroke-miterlimit:4;stroke-dasharray:none;stroke-dashoffset:0;stroke-opacity:1;paint-order:markers fill stroke;stop-color:#000000;stop-opacity:1" /></svg>
