<?xml version="1.0" encoding="UTF-8" standalone="no"?>
<svg
   xmlns:dc="http://purl.org/dc/elements/1.1/"
   xmlns:cc="http://creativecommons.org/ns#"
   xmlns:rdf="http://www.w3.org/1999/02/22-rdf-syntax-ns#"
   xmlns:svg="http://www.w3.org/2000/svg"
   xmlns="http://www.w3.org/2000/svg"
   xmlns:sodipodi="http://sodipodi.sourceforge.net/DTD/sodipodi-0.dtd"
   xmlns:inkscape="http://www.inkscape.org/namespaces/inkscape"
   inkscape:version="1.1-dev (f9311a1, 2019-12-25)"
   sodipodi:docname="feeding-bottle.svg"
   version="1.1"
   width="246.07652"
   viewBox="0 0 246.07652 510.944"
   height="510.944"
   enable-background="new 0 0 512 512"
   id="Capa_1">
  <metadata
     id="metadata951">
    <rdf:RDF>
      <cc:Work
         rdf:about="">
        <dc:format>image/svg+xml</dc:format>
        <dc:type
           rdf:resource="http://purl.org/dc/dcmitype/StillImage" />
      </cc:Work>
    </rdf:RDF>
  </metadata>
  <defs
     id="defs949" />
  <sodipodi:namedview
     inkscape:current-layer="Capa_1"
     inkscape:window-maximized="0"
     inkscape:window-y="23"
     inkscape:window-x="0"
     inkscape:cy="301.55987"
     inkscape:cx="59.469557"
     inkscape:zoom="0.96470084"
     showgrid="false"
     id="namedview947"
     inkscape:window-height="678"
     inkscape:window-width="1136"
     inkscape:pageshadow="2"
     inkscape:pageopacity="0"
     guidetolerance="10"
     gridtolerance="10"
     objecttolerance="10"
     borderopacity="1"
     inkscape:document-rotation="0"
     bordercolor="#666666"
     pagecolor="#ffffff" />
  <path
     inkscape:connector-curvature="0"
     id="path953"
     d="m 32.014035,508.99259 c -11.54864,-3.73492 -21.67038,-12.89103 -27.1168404,-24.52984 -5.21786,-11.15032 -5.07398,-15.88739 2.10864,-69.42315 11.2520804,-83.86744 11.2575704,-91.32821 0.13138,-178.29361 -5.40675,-42.26063 -7.26284,-59.74071 -6.82423,-64.26863 0.64099,-6.61728 4.95285,-16.56115 9.28757,-21.41868 4.2678004,-4.78254 11.7564704,-9.93403 16.9473204,-11.65815 l 5.00504,-1.66242 4.9933,-20.46594 c 2.74631,-11.25626 6.13881,-22.89278 7.5389,-25.858919 4.53871,-9.615467 16.36339,-17.930312 25.49899,-17.930312 6.74797,0 7.00333,-0.61705 7.00333,-16.922433 0,-21.9757 3.17043,-31.547373 14.14212,-42.69577 17.499985,-17.7818388 44.868955,-18.1996691 63.480005,-0.969122 11.47761,10.626243 15.63075,22.471597 15.65572,44.65239 0.0109,9.634981 0.39363,13.906006 1.31106,14.628954 0.71266,0.561577 3.76145,1.298399 6.77508,1.637382 9.90306,1.113925 19.21596,7.788691 24.02826,17.221587 1.12788,2.210816 4.46427,13.667093 7.4142,25.458403 3.91086,15.63229 5.81373,21.56693 7.02585,21.91208 0.91429,0.26036 4.55383,1.89065 8.08787,3.62289 10.8638,5.32495 18.63584,15.82182 20.93883,28.27983 0.98878,5.34881 0.34798,12.11546 -5.59148,59.044 -8.8571,69.98124 -8.87374,70.16147 -8.90991,96.53967 -0.037,26.96 0.37188,31.40393 8.53587,92.77487 5.58915,42.01522 6.15646,47.88106 5.19589,53.72422 -2.47044,15.0276 -11.60159,27.58304 -24.80733,34.11039 l -7.8977,3.90368 -87.12825,0.21522 c -81.036785,0.20019 -87.526835,0.0863 -92.829485,-1.62859 z M 207.919,479.87214 c 3.78475,-2.3077 6.19195,-5.60097 7.54662,-10.3244 0.69461,-2.42199 -0.64302,-15.09956 -5.12659,-48.58781 -8.18094,-61.10428 -8.67276,-66.46392 -8.67627,-94.54884 -0.003,-27.61492 0.23949,-30.31044 8.68891,-96.40294 3.3892,-26.51081 6.16518,-50.21984 6.16885,-52.68672 0.005,-3.58035 -0.60464,-5.09656 -3.02337,-7.51528 l -3.03003,-3.03004 h -87.18983 c -76.976045,0 -87.476855,0.18807 -89.640015,1.60542 -4.86282,3.18624 -5.04537,5.56044 -2.19304,28.52179 1.44734,11.65121 2.88848,22.70005 3.20253,24.55295 l 0.57098,3.36892 h 20.71814 c 15.341,0 21.61302,0.37391 24.16611,1.44066 10.17311,4.2506 12.58159,16.47627 4.72906,24.00519 l -3.19194,3.0604 -21.31055,0.31954 -21.31056,0.31954 0.5091,4.86341 c 0.28001,2.67489 1.31246,12.56011 2.29434,21.96717 0.98189,9.40706 1.99076,18.58742 2.24195,20.40079 l 0.4567,3.29703 29.2502,0.33104 c 33.182675,0.37552 34.178015,0.6021 38.083245,8.66923 2.56478,5.29814 2.56478,7.04998 0,12.34812 -3.90456,8.06575 -4.91237,8.29549 -37.968985,8.65564 l -29.13594,0.31742 -0.72681,13.67655 c -0.39975,7.52211 -1.33486,18.57445 -2.07803,24.56076 -0.74317,5.98631 -1.15476,11.23405 -0.91464,11.66164 0.24011,0.4276 8.92204,0.77919 19.29317,0.78132 20.64441,0.004 23.26056,0.65346 27.26578,6.7662 2.35847,3.59948 2.27249,10.67505 -0.18018,14.8271 -3.80267,6.4374 -7.88783,7.42737 -30.64944,7.42737 h -20.21101 l -3.42835,25.86429 c -1.97108,14.87032 -3.12054,27.09743 -2.7042,28.76539 1.18523,4.74834 4.50031,9.27705 8.08428,11.04388 2.99393,1.47595 12.28105,1.6598 84.734835,1.67736 78.84987,0.0191 81.47506,-0.0429 84.68498,-2.00009 z m -28.0391,-359.9513 -4.29805,-16.79415 -7.07948,-1.29604 c -8.35301,-1.52918 -14.42989,-4.838537 -19.80016,-10.782783 -6.47885,-7.171314 -7.1651,-9.792086 -7.85656,-30.004018 -0.67859,-19.836243 -1.34501,-22.345468 -7.25562,-27.318918 -8.26359,-6.953353 -19.26067,-5.042914 -25.10918,4.362031 -2.13989,3.441154 -2.4,5.405902 -2.90204,21.920297 -0.47345,15.574743 -0.8649,18.82885 -2.76773,23.008538 -4.474655,9.828831 -15.109465,17.596883 -26.084005,19.052703 -2.90753,0.3857 -5.69227,1.22534 -6.18831,1.86587 -0.73561,0.94987 -8.4636,30.38631 -8.4636,32.23841 0,0.29821 27.47313,0.5422 61.051385,0.5422 h 61.0514 z"
     style="font-variation-settings:normal;opacity:1;vector-effect:none;fill:#f5deb3;fill-opacity:1;stroke:#f5deb3;stroke-width:0.5;stroke-linecap:butt;stroke-linejoin:miter;stroke-miterlimit:4;stroke-dasharray:none;stroke-dashoffset:0;stroke-opacity:1;paint-order:markers fill stroke;stop-color:#000000;stop-opacity:1" />
</svg>
