<?xml version="1.0" encoding="UTF-8" standalone="no"?>
<svg
   xmlns:dc="http://purl.org/dc/elements/1.1/"
   xmlns:cc="http://creativecommons.org/ns#"
   xmlns:rdf="http://www.w3.org/1999/02/22-rdf-syntax-ns#"
   xmlns:svg="http://www.w3.org/2000/svg"
   xmlns="http://www.w3.org/2000/svg"
   xmlns:sodipodi="http://sodipodi.sourceforge.net/DTD/sodipodi-0.dtd"
   xmlns:inkscape="http://www.inkscape.org/namespaces/inkscape"
   version="1.1"
   id="Capa_1"
   x="0px"
   y="0px"
   viewBox="0 0 383.189 383.189"
   style="enable-background:new 0 0 383.189 383.189;"
   xml:space="preserve"
   sodipodi:docname="moon.svg"
   inkscape:version="1.1-dev (f9311a1, 2019-12-25)"><metadata
   id="metadata2422"><rdf:RDF><cc:Work
       rdf:about=""><dc:format>image/svg+xml</dc:format><dc:type
         rdf:resource="http://purl.org/dc/dcmitype/StillImage" /></cc:Work></rdf:RDF></metadata><defs
   id="defs2420" /><sodipodi:namedview
   pagecolor="#ffffff"
   bordercolor="#666666"
   inkscape:document-rotation="0"
   borderopacity="1"
   objecttolerance="10"
   gridtolerance="10"
   guidetolerance="10"
   inkscape:pageopacity="0"
   inkscape:pageshadow="2"
   inkscape:window-width="1273"
   inkscape:window-height="768"
   id="namedview2418"
   showgrid="false"
   inkscape:zoom="1.5095398"
   inkscape:cx="154.31913"
   inkscape:cy="189.02159"
   inkscape:window-x="0"
   inkscape:window-y="23"
   inkscape:window-maximized="0"
   inkscape:current-layer="Capa_1" />




<g
   id="g2387">
</g>
<g
   id="g2389">
</g>
<g
   id="g2391">
</g>
<g
   id="g2393">
</g>
<g
   id="g2395">
</g>
<g
   id="g2397">
</g>
<g
   id="g2399">
</g>
<g
   id="g2401">
</g>
<g
   id="g2403">
</g>
<g
   id="g2405">
</g>
<g
   id="g2407">
</g>
<g
   id="g2409">
</g>
<g
   id="g2411">
</g>
<g
   id="g2413">
</g>
<g
   id="g2415">
</g>
<path
   style="font-variation-settings:normal;opacity:1;vector-effect:none;fill:#f5deb3;fill-opacity:1;stroke:#f5deb3;stroke-width:3;stroke-linecap:butt;stroke-linejoin:miter;stroke-miterlimit:4;stroke-dasharray:none;stroke-dashoffset:0;stroke-opacity:1;paint-order:markers fill stroke;stop-color:#000000;stop-opacity:1"
   d="m 172.54966,381.49584 c -8.09908,-0.8657 -19.00162,-2.5268 -24.36247,-3.71185 C 93.517956,365.69908 47.467637,330.34133 22.464834,281.2535 12.25163,261.20199 6.5567533,243.39569 3.2569395,221.19573 2.3473952,215.07665 2.0498554,208.90462 2.0498554,196.15653 c 0,-17.62226 0.773421,-25.70685 3.7549591,-39.25065 C 14.650487,116.72392 36.890962,79.85087 67.899615,53.957329 81.028596,42.994073 94.060725,34.766097 110.38317,27.134876 c 8.1358,-3.803725 11.23616,-4.121669 14.38172,-1.474853 3.62718,3.052072 3.48741,5.059932 -1.16466,16.730082 -12.16343,30.513103 -15.59355,61.690985 -10.23532,93.033295 5.94829,34.79375 22.38218,66.56487 47.34189,91.52459 24.58103,24.58103 56.97528,41.42987 91.0209,47.34162 29.23618,5.07663 57.13783,2.74864 85.59914,-7.14203 5.7735,-2.00637 11.2586,-3.64859 12.18911,-3.64938 2.87117,-0.003 5.93577,2.36494 6.80136,5.25401 0.9318,3.11009 -0.0415,5.80984 -6.03246,16.73338 -25.65355,46.77485 -70.37149,80.42417 -122.24289,91.98526 -13.70552,3.05468 -20.95804,3.85121 -37.22044,4.08785 -8.5607,0.12457 -16.78304,0.0963 -18.27186,-0.0629 z m 34.87208,-16.17955 c 29.90702,-3.68272 58.83717,-15.40343 83.17856,-33.69883 8.07284,-6.06768 22.22871,-19.74794 28.75064,-27.78467 4.77662,-5.88603 13.4192,-18.06185 13.06909,-18.41195 -0.0914,-0.0914 -3.10238,0.54374 -6.69114,1.41134 -17.05968,4.12423 -29.3063,5.33725 -49.30035,4.88319 -19.99284,-0.45404 -31.85007,-2.26389 -49.06331,-7.48889 -59.91297,-18.18628 -106.82877,-65.56487 -124.45881,-125.68647 -2.37406,-8.09598 -4.437116,-17.6887 -5.954804,-27.68844 -1.373894,-9.0523 -1.164011,-41.751202 0.327371,-51.002747 1.515116,-9.398808 3.988053,-20.306024 6.119523,-26.990998 0.91974,-2.884584 1.4505,-5.244699 1.17948,-5.244699 -0.27103,0 -3.1447,1.609983 -6.385945,3.577741 -21.283772,12.921375 -43.043093,34.816991 -56.196891,56.548893 -23.160761,38.26479 -30.448603,84.25409 -20.231226,127.66742 5.242451,22.27501 15.962617,44.95218 30.212992,63.91181 6.251673,8.31764 20.023716,22.49783 28.372437,29.21329 25.013983,20.12052 55.204873,33.03223 85.945773,36.75636 10.60546,1.2848 30.80711,1.29839 41.12661,0.0277 z"
   id="path2424"
   inkscape:connector-curvature="0" /><path
   style="font-variation-settings:normal;opacity:1;vector-effect:none;fill:#f5deb3;fill-opacity:1;stroke:#f5deb3;stroke-width:3;stroke-linecap:butt;stroke-linejoin:miter;stroke-miterlimit:4;stroke-dasharray:none;stroke-dashoffset:0;stroke-opacity:1;paint-order:markers fill stroke;stop-color:#000000;stop-opacity:1"
   d="m 166.064,133.018 c -3.10539,-0.89847 -4.94891,-3.55839 -4.94891,-7.14052 0,-3.33945 0.0943,-3.45783 20.95509,-26.29136 11.53179,-12.622343 16.94209,-18.85788 16.94209,-19.526273 0,-0.239025 -6.04905,-0.434591 -13.44234,-0.434591 -14.36087,0 -20.221,-0.680372 -21.57871,-2.505329 -1.02561,-1.378559 -1.10038,-4.552283 -0.14913,-6.329715 1.68933,-3.156531 3.22571,-3.346191 27.10642,-3.346191 15.00586,0 23.32096,0.258985 25.06191,0.780588 3.68157,1.103025 5.00889,2.819815 4.93129,6.378252 -0.0806,3.695218 -0.0828,3.698025 -20.91434,26.934959 -8.9329,9.96436 -16.34316,18.39856 -16.46722,18.74266 -0.13456,0.37319 7.18335,0.62563 18.13627,0.62563 22.04827,0 23.03179,0.26435 23.03179,6.19046 0,2.89425 -1.13038,4.61315 -3.75478,5.7097 -1.84723,0.77182 -7.19156,0.94596 -27.52249,0.89678 -13.87657,-0.0336 -26.20069,-0.34184 -27.38694,-0.68505 z"
   id="path2987"
   inkscape:connector-curvature="0" /><path
   style="font-variation-settings:normal;opacity:1;vector-effect:none;fill:#f5deb3;fill-opacity:1;stroke:#f5deb3;stroke-width:3;stroke-linecap:butt;stroke-linejoin:miter;stroke-miterlimit:4;stroke-dasharray:none;stroke-dashoffset:0;stroke-opacity:1;paint-order:markers fill stroke;stop-color:#000000;stop-opacity:1"
   d="m 253.98118,187.87689 c -1.7472,-1.32744 -2.63701,-4.21212 -1.89845,-6.15466 0.34782,-0.91485 7.19223,-9.18146 15.20979,-18.37023 8.01756,-9.18877 14.57738,-16.96712 14.57738,-17.28522 0,-0.3181 -5.61399,-0.57836 -12.47554,-0.57836 -6.86156,0 -13.2567,-0.29699 -14.21145,-0.65999 -1.45061,-0.55152 -1.73589,-1.09036 -1.73589,-3.27879 0,-1.80175 0.44403,-3.02102 1.42321,-3.90797 1.3071,-1.18401 2.83908,-1.30716 18.7794,-1.50961 23.02147,-0.29238 25.82363,0.33285 25.81093,5.75901 -0.006,2.69879 -0.78217,3.70018 -16.068,20.73865 -7.53714,8.40132 -13.70389,15.59471 -13.70389,15.9853 0,0.47399 4.90121,0.71017 14.7376,0.71017 16.91087,0 17.74569,0.21972 17.74569,4.67063 0,4.87018 0.33029,4.80637 -24.75412,4.78214 -17.20557,-0.0166 -22.54261,-0.22182 -23.43666,-0.90107 z"
   id="path2989"
   inkscape:connector-curvature="0" /><path
   style="font-variation-settings:normal;opacity:1;vector-effect:none;fill:#f5deb3;fill-opacity:1;stroke:#f5deb3;stroke-width:3;stroke-linecap:butt;stroke-linejoin:miter;stroke-miterlimit:4;stroke-dasharray:none;stroke-dashoffset:0;stroke-opacity:1;paint-order:markers fill stroke;stop-color:#000000;stop-opacity:1"
   d="m 320.15872,117.83613 c -3.50772,-2.13881 -4.61921,-5.91909 -2.72615,-9.27186 0.45207,-0.80064 8.0727,-9.535983 16.93473,-19.41186 8.86204,-9.875885 17.15352,-19.270333 18.42552,-20.876553 l 2.31273,-2.9204 -16.39531,-0.338368 c -11.40436,-0.235364 -16.84997,-0.598381 -17.88885,-1.192511 -2.0795,-1.189255 -2.73054,-5.046212 -1.23664,-7.326191 2.25017,-3.434207 3.94517,-3.66393 26.90173,-3.64599 25.65879,0.02005 28.56894,0.526988 30.39163,5.294107 1.41846,3.709896 -0.0844,5.830545 -19.26204,27.17985 -10.19391,11.348273 -18.40616,20.861616 -18.24945,21.140776 0.15671,0.27915 8.66498,0.50755 18.90727,0.50755 h 18.62234 l 1.97815,1.97815 c 3.05924,3.05924 2.69144,7.41931 -0.77719,9.21301 -1.58652,0.82042 -6.52984,0.98964 -28.84843,0.98755 -25.47573,-0.002 -27.05057,-0.0737 -29.09004,-1.31726 z"
   id="path2991"
   inkscape:connector-curvature="0" /></svg>
