<?xml version="1.0" encoding="UTF-8" standalone="no"?>
<svg
   xmlns:dc="http://purl.org/dc/elements/1.1/"
   xmlns:cc="http://creativecommons.org/ns#"
   xmlns:rdf="http://www.w3.org/1999/02/22-rdf-syntax-ns#"
   xmlns:svg="http://www.w3.org/2000/svg"
   xmlns="http://www.w3.org/2000/svg"
   xmlns:sodipodi="http://sodipodi.sourceforge.net/DTD/sodipodi-0.dtd"
   xmlns:inkscape="http://www.inkscape.org/namespaces/inkscape"
   inkscape:version="1.1-dev (f9311a1, 2019-12-25)"
   sodipodi:docname="smiling-baby.svg"
   xml:space="preserve"
   style="enable-background:new 0 0 387.039 387.039;"
   viewBox="0 0 387.039 387.039"
   y="0px"
   x="0px"
   id="Capa_1"
   version="1.1"><metadata
   id="metadata878"><rdf:RDF><cc:Work
       rdf:about=""><dc:format>image/svg+xml</dc:format><dc:type
         rdf:resource="http://purl.org/dc/dcmitype/StillImage" /></cc:Work></rdf:RDF></metadata><defs
   id="defs876" /><sodipodi:namedview
   inkscape:current-layer="Capa_1"
   inkscape:window-maximized="0"
   inkscape:window-y="23"
   inkscape:window-x="0"
   inkscape:cy="193.5195"
   inkscape:cx="193.5195"
   inkscape:zoom="1.4333319"
   showgrid="false"
   id="namedview874"
   inkscape:window-height="723"
   inkscape:window-width="1267"
   inkscape:pageshadow="2"
   inkscape:pageopacity="0"
   guidetolerance="10"
   gridtolerance="10"
   objecttolerance="10"
   borderopacity="1"
   inkscape:document-rotation="0"
   bordercolor="#666666"
   pagecolor="#ffffff" />
<g
   style="fill:#f5deb3;fill-opacity:1"
   id="g841">
	<circle
   style="fill:#f5deb3;fill-opacity:1"
   id="circle833"
   r="15.368"
   cy="233.169"
   cx="112.809" />
	<circle
   style="fill:#f5deb3;fill-opacity:1"
   id="circle835"
   r="15.368"
   cy="233.169"
   cx="274.229" />
	<path
   style="fill:#f5deb3;fill-opacity:1"
   id="path837"
   d="M387.039,226.647c0-22.261-16.136-40.811-37.324-44.602v-6.717c0-86.127-70.069-156.196-156.195-156.196   c-86.127,0-156.196,70.069-156.196,156.196v6.717C16.136,185.837,0,204.387,0,226.647c0,22.453,16.414,41.134,37.871,44.7   c3.02,34.414,18.765,59.834,46.942,75.653c25.058,14.068,60.615,20.906,108.707,20.906c48.091,0,83.649-6.839,108.707-20.906   c28.176-15.819,43.921-41.238,46.941-75.653C370.625,267.782,387.039,249.1,387.039,226.647z M16,226.647   c0-13.395,9.032-24.713,21.323-28.205v56.41C25.032,251.361,16,240.043,16,226.647z M333.715,258.757   c0,35.135-12.862,59.436-39.321,74.291c-22.603,12.69-55.599,18.858-100.874,18.858s-78.272-6.168-100.874-18.858   c-26.46-14.855-39.322-39.156-39.322-74.291v-83.429c0-63.309,42.185-116.941,99.918-134.29   c43.983,0.556,67.407,32.306,67.407,55.296c0,17.608-14.325,31.934-31.934,31.934c-13.204,0-23.947-10.743-23.947-23.947   c0-9.681,7.876-17.558,17.558-17.558c4.418,0,8-3.582,8-8s-3.582-8-8-8c-18.504,0-33.558,15.054-33.558,33.558   c0,22.027,17.92,39.947,39.947,39.947c26.431,0,47.934-21.503,47.934-47.934c0-16.605-8.343-34.47-22.317-47.79   c-5.59-5.328-11.95-9.807-18.89-13.387c76.42,1.034,138.273,63.51,138.273,140.171V258.757z M349.715,254.853v-56.41   c12.292,3.492,21.324,14.81,21.324,28.205S362.006,251.361,349.715,254.853z" />
	<path
   style="fill:#f5deb3;fill-opacity:1"
   id="path839"
   d="M224.459,255.203c-17.059,17.061-44.82,17.061-61.879,0c-3.125-3.124-8.189-3.124-11.314,0   c-3.124,3.124-3.124,8.19,0,11.314c11.649,11.649,26.952,17.474,42.254,17.474s30.604-5.825,42.254-17.474   c3.124-3.124,3.124-8.19,0-11.314C232.648,252.079,227.584,252.079,224.459,255.203z" />
</g>
<g
   id="g843">
</g>
<g
   id="g845">
</g>
<g
   id="g847">
</g>
<g
   id="g849">
</g>
<g
   id="g851">
</g>
<g
   id="g853">
</g>
<g
   id="g855">
</g>
<g
   id="g857">
</g>
<g
   id="g859">
</g>
<g
   id="g861">
</g>
<g
   id="g863">
</g>
<g
   id="g865">
</g>
<g
   id="g867">
</g>
<g
   id="g869">
</g>
<g
   id="g871">
</g>
<path
   inkscape:connector-curvature="0"
   id="path882"
   d=""
   style="font-variation-settings:normal;opacity:1;vector-effect:none;fill:#ffff00;fill-opacity:1;stroke:#364954;stroke-width:3;stroke-linecap:butt;stroke-linejoin:miter;stroke-miterlimit:4;stroke-dasharray:none;stroke-dashoffset:0;stroke-opacity:1;paint-order:markers fill stroke;stop-color:#000000;stop-opacity:1" /></svg>
